# xmcd
#
# Track frame offsets:
#	150
#	18130
#	41376
#	63457
#	88150
#	106493
#	126988
#	143941
#	164660
#	184235
#	205214
#	223319
#	241698
#
# Disc length: 3561 seconds
#
# Revision: 1
# Processed by: cddbd v1.5PL3 Copyright (c) Steve Scherf et al.
# Submitted via: audiograbber 1.82.02
#
DISCID=c00de70d
DTITLE=Biscuit Miller - Come Together
DYEAR=2002
DGENRE=Blues
TTITLE0=Come Together
TTITLE1=Build Me Up
TTITLE2=Let's Go Fishing
TTITLE3=If It Makes You Happy
TTITLE4=Stay In The House Blues
TTITLE5=Pretty Leg Woman
TTITLE6=Heaven Knows
TTITLE7=Too Bad
TTITLE8=Voodoo Lady
TTITLE9=Wipe Your Tears
TTITLE10=Howling For My Darling
TTITLE11=Mojo Working 2002
TTITLE12=Mother's Love
EXTD=
EXTT0=
EXTT1=
EXTT2=
EXTT3=
EXTT4=
EXTT5=
EXTT6=
EXTT7=
EXTT8=
EXTT9=
EXTT10=
EXTT11=
EXTT12=
PLAYORDER=
